#format: frame checksums
#version: 2
#hash: MD5
#tb 0: 1/48000
#media_type 0: audio
#codec_id 0: pcm_s24le
#sample_rate 0: 48000
#channel_layout_name 0: 5.1(side)
#stream#, dts,        pts, duration,     size, hash
0,          0,          0,      512,     9216, 13a95890b5f0947d6f058ca9c30a3e01
0,        512,        512,      512,     9216, 13a95890b5f0947d6f058ca9c30a3e01
0,       1024,       1024,      512,     9216, 96ca6b6987c99d2f23bcd4754b257e8a
0,       1536,       1536,      512,     9216, 67cf8fd7f6bead8a8225758e33068963
0,       2048,       2048,      512,     9216, 8760d8a994cf173c1d6d818da419ea1d
0,       2560,       2560,      512,     9216, 981ef3eef27d72d6c6425c7e6ad78da0
